<?xml version="1.0" encoding="UTF-8" standalone="no"?>
<!DOCTYPE svg PUBLIC "-//W3C//DTD SVG 1.1//EN"
 "http://www.w3.org/Graphics/SVG/1.1/DTD/svg11.dtd">
<!-- Generated by graphviz version 2.40.1 (20161225.0304)
 -->
<!-- Title: %3 Pages: 1 -->
<svg width="360pt" height="348pt"
 viewBox="0.00 0.00 360.00 347.50" xmlns="http://www.w3.org/2000/svg" xmlns:xlink="http://www.w3.org/1999/xlink">
<g id="graph0" class="graph" transform="scale(1 1) rotate(0) translate(4 343.5)">
<title>%3</title>
<polygon fill="#ffffff" stroke="transparent" points="-4,4 -4,-343.5 356,-343.5 356,4 -4,4"/>
<!-- e_dim.customer -->
<g id="node1" class="node">
<title>e_dim.customer</title>
<polygon fill="#ffffcc" stroke="transparent" points="38,-242.5 38,-335.5 190,-335.5 190,-242.5 38,-242.5"/>
<text text-anchor="start" x="40" y="-326" font-family="Helvetica, Arial, sans-serif" font-weight="bold" text-decoration="underline" font-size="10.00" fill="#555555"> customer </text>
<text text-anchor="start" x="40" y="-312" font-family="Helvetica, Arial, sans-serif" font-size="10.00" fill="#555555"> customer_id </text>
<text text-anchor="start" x="40" y="-299" font-family="Helvetica, Arial, sans-serif" font-size="10.00" fill="#555555"> first_order_fk </text>
<text text-anchor="start" x="40" y="-286" font-family="Helvetica, Arial, sans-serif" font-size="10.00" fill="#555555"> age </text>
<text text-anchor="start" x="40" y="-273" font-family="Helvetica, Arial, sans-serif" font-size="10.00" fill="#555555"> duration_since_first_order_days </text>
<text text-anchor="start" x="40" y="-260" font-family="Helvetica, Arial, sans-serif" font-size="10.00" fill="#555555"> number_of_orders </text>
<text text-anchor="start" x="40" y="-247" font-family="Helvetica, Arial, sans-serif" font-size="10.00" fill="#555555"> revenue_lifetime </text>
<polygon fill="none" stroke="#000000" points="38,-242.5 38,-335.5 190,-335.5 190,-242.5 38,-242.5"/>
</g>
<!-- e_dim.order -->
<g id="node2" class="node">
<title>e_dim.order</title>
<polygon fill="#ffffcc" stroke="transparent" points="214.5,-158.5 214.5,-225.5 279.5,-225.5 279.5,-158.5 214.5,-158.5"/>
<text text-anchor="start" x="217" y="-216" font-family="Helvetica, Arial, sans-serif" font-weight="bold" text-decoration="underline" font-size="10.00" fill="#555555"> order </text>
<text text-anchor="start" x="217" y="-202" font-family="Helvetica, Arial, sans-serif" font-size="10.00" fill="#555555"> order_id </text>
<text text-anchor="start" x="217" y="-189" font-family="Helvetica, Arial, sans-serif" font-size="10.00" fill="#555555"> customer_fk </text>
<text text-anchor="start" x="217" y="-176" font-family="Helvetica, Arial, sans-serif" font-size="10.00" fill="#555555"> order_date </text>
<text text-anchor="start" x="217" y="-163" font-family="Helvetica, Arial, sans-serif" font-size="10.00" fill="#555555"> status </text>
<polygon fill="none" stroke="#000000" points="214.5,-158.5 214.5,-225.5 279.5,-225.5 279.5,-158.5 214.5,-158.5"/>
</g>
<!-- e_dim.customer&#45;&gt;e_dim.order -->
<g id="edge5" class="edge">
<title>e_dim.customer&#45;&gt;e_dim.order</title>
<path fill="none" stroke="#888888" d="M183.6162,-238.2273C188.4871,-234.6748 193.3357,-231.1386 198.0571,-227.6952"/>
<polygon fill="#888888" stroke="#888888" points="200.3785,-230.3342 206.3956,-221.6138 196.2537,-224.6785 200.3785,-230.3342"/>
</g>
<!-- e_dim.order&#45;&gt;e_dim.customer -->
<g id="edge1" class="edge">
<title>e_dim.order&#45;&gt;e_dim.customer</title>
<path fill="none" stroke="#888888" d="M206.3729,-221.6303C201.5602,-225.1403 196.5333,-228.8065 191.4178,-232.5374"/>
<polygon fill="#888888" stroke="#888888" points="189.3413,-229.7198 183.3242,-238.4402 193.4661,-235.3755 189.3413,-229.7198"/>
</g>
<!-- e_dim.status -->
<g id="node5" class="node">
<title>e_dim.status</title>
<polygon fill="#ffffcc" stroke="transparent" points="304,-120.5 304,-135.5 344,-135.5 344,-120.5 304,-120.5"/>
<text text-anchor="start" x="306" y="-126" font-family="Helvetica, Arial, sans-serif" font-weight="bold" text-decoration="underline" font-size="10.00" fill="#555555"> status </text>
<polygon fill="none" stroke="#000000" points="304,-120.5 304,-135.5 344,-135.5 344,-120.5 304,-120.5"/>
</g>
<!-- e_dim.order&#45;&gt;e_dim.status -->
<g id="edge4" class="edge">
<title>e_dim.order&#45;&gt;e_dim.status</title>
<path fill="none" stroke="#888888" d="M287.7547,-158.126C289.9011,-156.3419 292.0381,-154.5657 294.139,-152.8196"/>
<polygon fill="#888888" stroke="#888888" points="296.5526,-155.3646 302.0057,-146.2809 292.0781,-149.9813 296.5526,-155.3646"/>
</g>
<!-- e_dim.order_item -->
<g id="node3" class="node">
<title>e_dim.order_item</title>
<polygon fill="#ffffcc" stroke="transparent" points="118.5,-74.5 118.5,-141.5 189.5,-141.5 189.5,-74.5 118.5,-74.5"/>
<text text-anchor="start" x="121" y="-132" font-family="Helvetica, Arial, sans-serif" font-weight="bold" text-decoration="underline" font-size="10.00" fill="#555555"> order_item </text>
<text text-anchor="start" x="121" y="-118" font-family="Helvetica, Arial, sans-serif" font-size="10.00" fill="#555555"> order_item_id </text>
<text text-anchor="start" x="121" y="-105" font-family="Helvetica, Arial, sans-serif" font-size="10.00" fill="#555555"> order_fk </text>
<text text-anchor="start" x="121" y="-92" font-family="Helvetica, Arial, sans-serif" font-size="10.00" fill="#555555"> product_fk </text>
<text text-anchor="start" x="121" y="-79" font-family="Helvetica, Arial, sans-serif" font-size="10.00" fill="#555555"> revenue </text>
<polygon fill="none" stroke="#000000" points="118.5,-74.5 118.5,-141.5 189.5,-141.5 189.5,-74.5 118.5,-74.5"/>
</g>
<!-- e_dim.order_item&#45;&gt;e_dim.order -->
<g id="edge3" class="edge">
<title>e_dim.order_item&#45;&gt;e_dim.order</title>
<path fill="none" stroke="#888888" d="M195.6038,-145.5776C196.6103,-146.4868 197.62,-147.3987 198.6308,-148.3117"/>
<polygon fill="#888888" stroke="#888888" points="196.6045,-151.1979 206.3716,-155.3034 201.2966,-146.0031 196.6045,-151.1979"/>
</g>
<!-- e_dim.product -->
<g id="node4" class="node">
<title>e_dim.product</title>
<polygon fill="#ffffcc" stroke="transparent" points="8,-4 8,-58 94,-58 94,-4 8,-4"/>
<text text-anchor="start" x="10" y="-49" font-family="Helvetica, Arial, sans-serif" font-weight="bold" text-decoration="underline" font-size="10.00" fill="#555555"> product </text>
<text text-anchor="start" x="10" y="-35" font-family="Helvetica, Arial, sans-serif" font-size="10.00" fill="#555555"> product_id </text>
<text text-anchor="start" x="10" y="-22" font-family="Helvetica, Arial, sans-serif" font-size="10.00" fill="#555555"> categories </text>
<text text-anchor="start" x="10" y="-9" font-family="Helvetica, Arial, sans-serif" font-size="10.00" fill="#555555"> revenue_all_time </text>
<polygon fill="none" stroke="#000000" points="8,-4 8,-58 94,-58 94,-4 8,-4"/>
</g>
<!-- e_dim.order_item&#45;&gt;e_dim.product -->
<g id="edge2" class="edge">
<title>e_dim.order_item&#45;&gt;e_dim.product</title>
<path fill="none" stroke="#888888" d="M110.3187,-75.3451C107.2311,-73.0369 104.1052,-70.7 100.9866,-68.3686"/>
<polygon fill="#888888" stroke="#888888" points="102.8854,-65.4182 92.7804,-62.2339 98.694,-71.0247 102.8854,-65.4182"/>
</g>
</g>
</svg>
