<?xml version="1.0" encoding="UTF-8" standalone="no"?>
<!DOCTYPE svg PUBLIC "-//W3C//DTD SVG 1.1//EN"
 "http://www.w3.org/Graphics/SVG/1.1/DTD/svg11.dtd">
<!-- Generated by graphviz version 2.43.0 (0)
 -->
<!-- Title: %3 Pages: 1 -->
<svg width="416pt" height="348pt"
 viewBox="0.00 0.00 416.00 348.00" xmlns="http://www.w3.org/2000/svg" xmlns:xlink="http://www.w3.org/1999/xlink">
<g id="graph0" class="graph" transform="scale(1 1) rotate(0) translate(4 344)">
<title>%3</title>
<polygon fill="white" stroke="transparent" points="-4,4 -4,-344 412,-344 412,4 -4,4"/>
<!-- dim.customer -->
<g id="node1" class="node">
<title>dim.customer</title>
<polygon fill="#ffffcc" stroke="transparent" points="256,-238 256,-336 400,-336 400,-238 256,-238"/>
<text text-anchor="start" x="258" y="-327" font-family="Helvetica, Arial, sans-serif" font-weight="bold" text-decoration="underline" font-size="10.00" fill="#555555"> customer </text>
<text text-anchor="start" x="258" y="-314" font-family="Helvetica, Arial, sans-serif" font-size="10.00" fill="#555555"> customer_id </text>
<text text-anchor="start" x="258" y="-302" font-family="Helvetica, Arial, sans-serif" font-size="10.00" fill="#555555"> email </text>
<text text-anchor="start" x="258" y="-290" font-family="Helvetica, Arial, sans-serif" font-size="10.00" fill="#555555"> duration_since_first_order </text>
<text text-anchor="start" x="258" y="-278" font-family="Helvetica, Arial, sans-serif" font-size="10.00" fill="#555555"> first_order_fk </text>
<text text-anchor="start" x="257.96" y="-266" font-family="Helvetica, Arial, sans-serif" font-size="10.00" fill="#555555"> favourite_product_category_fk </text>
<text text-anchor="start" x="258" y="-254" font-family="Helvetica, Arial, sans-serif" font-size="10.00" fill="#555555"> number_of_orders </text>
<text text-anchor="start" x="258" y="-242" font-family="Helvetica, Arial, sans-serif" font-size="10.00" fill="#555555"> revenue_lifetime </text>
<polygon fill="none" stroke="black" points="256,-238 256,-336 400,-336 400,-238 256,-238"/>
</g>
<!-- dim.order -->
<g id="node2" class="node">
<title>dim.order</title>
<polygon fill="#ffffcc" stroke="transparent" points="256,-94 256,-156 320,-156 320,-94 256,-94"/>
<text text-anchor="start" x="258" y="-147" font-family="Helvetica, Arial, sans-serif" font-weight="bold" text-decoration="underline" font-size="10.00" fill="#555555"> order </text>
<text text-anchor="start" x="258" y="-134" font-family="Helvetica, Arial, sans-serif" font-size="10.00" fill="#555555"> order_id </text>
<text text-anchor="start" x="257.99" y="-122" font-family="Helvetica, Arial, sans-serif" font-size="10.00" fill="#555555"> customer_fk </text>
<text text-anchor="start" x="258" y="-110" font-family="Helvetica, Arial, sans-serif" font-size="10.00" fill="#555555"> order_date </text>
<text text-anchor="start" x="258" y="-98" font-family="Helvetica, Arial, sans-serif" font-size="10.00" fill="#555555"> status </text>
<polygon fill="none" stroke="black" points="256,-94 256,-156 320,-156 320,-94 256,-94"/>
</g>
<!-- dim.customer&#45;&gt;dim.order -->
<g id="edge4" class="edge">
<title>dim.customer&#45;&gt;dim.order</title>
<path fill="none" stroke="#888888" d="M321.39,-233.78C316.92,-213.2 311.11,-189.9 305.51,-170.15"/>
<polygon fill="#888888" stroke="#888888" points="308.85,-169.11 302.7,-160.48 302.13,-171.06 308.85,-169.11"/>
</g>
<!-- dim.product_category -->
<g id="node5" class="node">
<title>dim.product_category</title>
<polygon fill="#ffffcc" stroke="transparent" points="132,-172 132,-222 232,-222 232,-172 132,-172"/>
<text text-anchor="start" x="134" y="-213" font-family="Helvetica, Arial, sans-serif" font-weight="bold" text-decoration="underline" font-size="10.00" fill="#555555"> product_category </text>
<text text-anchor="start" x="133.91" y="-200" font-family="Helvetica, Arial, sans-serif" font-size="10.00" fill="#555555"> product_category_id </text>
<text text-anchor="start" x="134" y="-188" font-family="Helvetica, Arial, sans-serif" font-size="10.00" fill="#555555"> level_1 </text>
<text text-anchor="start" x="134" y="-176" font-family="Helvetica, Arial, sans-serif" font-size="10.00" fill="#555555"> level_2 </text>
<polygon fill="none" stroke="black" points="132,-172 132,-222 232,-222 232,-172 132,-172"/>
</g>
<!-- dim.customer&#45;&gt;dim.product_category -->
<g id="edge5" class="edge">
<title>dim.customer&#45;&gt;dim.product_category</title>
<path fill="none" stroke="#888888" d="M247.74,-237.52C244.36,-235.44 241,-233.37 237.69,-231.33"/>
<polygon fill="#888888" stroke="#888888" points="239.42,-228.29 229.07,-226.02 235.75,-234.25 239.42,-228.29"/>
</g>
<!-- dim.order&#45;&gt;dim.customer -->
<g id="edge2" class="edge">
<title>dim.order&#45;&gt;dim.customer</title>
<path fill="none" stroke="#888888" d="M290.93,-160.31C294.5,-178.97 299.95,-202.45 305.65,-224.1"/>
<polygon fill="#888888" stroke="#888888" points="302.3,-225.15 308.28,-233.9 309.07,-223.34 302.3,-225.15"/>
</g>
<!-- dim.status -->
<g id="node6" class="node">
<title>dim.status</title>
<polygon fill="#ffffcc" stroke="transparent" points="345,-57 345,-71 381,-71 381,-57 345,-57"/>
<text text-anchor="start" x="346.88" y="-62" font-family="Helvetica, Arial, sans-serif" font-weight="bold" text-decoration="underline" font-size="10.00" fill="#555555"> status </text>
<polygon fill="none" stroke="black" points="345,-57 345,-71 381,-71 381,-57 345,-57"/>
</g>
<!-- dim.order&#45;&gt;dim.status -->
<g id="edge3" class="edge">
<title>dim.order&#45;&gt;dim.status</title>
<path fill="none" stroke="#888888" d="M328.13,-92.36C329.75,-91.04 331.37,-89.73 332.96,-88.43"/>
<polygon fill="#888888" stroke="#888888" points="335.17,-91.15 340.72,-82.12 330.75,-85.72 335.17,-91.15"/>
</g>
<!-- dim.order_item -->
<g id="node3" class="node">
<title>dim.order_item</title>
<polygon fill="#ffffcc" stroke="transparent" points="182,-4 182,-78 270,-78 270,-4 182,-4"/>
<text text-anchor="start" x="184" y="-69" font-family="Helvetica, Arial, sans-serif" font-weight="bold" text-decoration="underline" font-size="10.00" fill="#555555"> order_item </text>
<text text-anchor="start" x="184" y="-56" font-family="Helvetica, Arial, sans-serif" font-size="10.00" fill="#555555"> order_item_id </text>
<text text-anchor="start" x="184" y="-44" font-family="Helvetica, Arial, sans-serif" font-size="10.00" fill="#555555"> order_fk </text>
<text text-anchor="start" x="184" y="-32" font-family="Helvetica, Arial, sans-serif" font-size="10.00" fill="#555555"> product_fk </text>
<text text-anchor="start" x="184" y="-20" font-family="Helvetica, Arial, sans-serif" font-size="10.00" fill="#555555"> product_revenue </text>
<text text-anchor="start" x="183.75" y="-8" font-family="Helvetica, Arial, sans-serif" font-size="10.00" fill="#555555"> shipping_revenue </text>
<polygon fill="none" stroke="black" points="182,-4 182,-78 270,-78 270,-4 182,-4"/>
</g>
<!-- dim.order_item&#45;&gt;dim.order -->
<g id="edge6" class="edge">
<title>dim.order_item&#45;&gt;dim.order</title>
<path fill="none" stroke="#888888" d="M256.27,-82.02C256.4,-82.18 256.52,-82.35 256.64,-82.52"/>
<polygon fill="#888888" stroke="#888888" points="253.4,-84.02 262.16,-89.98 259.03,-79.86 253.4,-84.02"/>
</g>
<!-- dim.product -->
<g id="node4" class="node">
<title>dim.product</title>
<polygon fill="#ffffcc" stroke="transparent" points="8,-94 8,-156 108,-156 108,-94 8,-94"/>
<text text-anchor="start" x="10" y="-147" font-family="Helvetica, Arial, sans-serif" font-weight="bold" text-decoration="underline" font-size="10.00" fill="#555555"> product </text>
<text text-anchor="start" x="10" y="-134" font-family="Helvetica, Arial, sans-serif" font-size="10.00" fill="#555555"> product_id </text>
<text text-anchor="start" x="10" y="-122" font-family="Helvetica, Arial, sans-serif" font-size="10.00" fill="#555555"> sku </text>
<text text-anchor="start" x="9.92" y="-110" font-family="Helvetica, Arial, sans-serif" font-size="10.00" fill="#555555"> product_category_fk </text>
<text text-anchor="start" x="10" y="-98" font-family="Helvetica, Arial, sans-serif" font-size="10.00" fill="#555555"> revenue_all_time </text>
<polygon fill="none" stroke="black" points="8,-94 8,-156 108,-156 108,-94 8,-94"/>
</g>
<!-- dim.order_item&#45;&gt;dim.product -->
<g id="edge1" class="edge">
<title>dim.order_item&#45;&gt;dim.product</title>
<path fill="none" stroke="#888888" d="M173.76,-67.12C158.47,-74.77 141.52,-83.24 125.42,-91.29"/>
<polygon fill="#888888" stroke="#888888" points="123.43,-88.37 116.05,-95.97 126.56,-94.63 123.43,-88.37"/>
</g>
<!-- dim.product&#45;&gt;dim.product_category -->
<g id="edge7" class="edge">
<title>dim.product&#45;&gt;dim.product_category</title>
<path fill="none" stroke="#888888" d="M116.01,-158.68C118.32,-160.03 120.65,-161.38 122.97,-162.72"/>
<polygon fill="#888888" stroke="#888888" points="121.45,-165.89 131.85,-167.88 124.96,-159.83 121.45,-165.89"/>
</g>
</g>
</svg>
